<svg width="21" height="19" viewBox="0 0 21 19" fill="none" xmlns="http://www.w3.org/2000/svg">
<path d="M3.8717 18.5857L3.87164 18.5858C3.58329 18.6429 3.29399 18.6953 3.00389 18.7428L3.00299 18.7429C2.55212 18.815 2.2385 18.3522 2.40428 17.9619M3.8717 18.5857L2.63439 18.0596M3.8717 18.5857C6.0055 18.1623 7.35296 17.6076 8.03126 17.2741L3.8717 18.5857ZM2.40428 17.9619L2.63439 18.0596M2.40428 17.9619C2.40426 17.962 2.40424 17.962 2.40422 17.962L2.63439 18.0596M2.40428 17.9619C2.50837 17.7164 2.60383 17.4674 2.69049 17.2152M2.63439 18.0596C2.74143 17.8072 2.83954 17.5511 2.92853 17.2917M2.69049 17.2152L2.68908 17.2199L2.92853 17.2917M2.69049 17.2152C2.69102 17.2136 2.69154 17.2121 2.69207 17.2106L2.92853 17.2917M2.69049 17.2152L2.69269 17.2078L2.69559 17.1982L2.69578 17.1983C2.97739 16.3807 3.20778 15.4486 3.30314 14.5756C1.83213 13.062 0.938965 11.093 0.938965 8.93866C0.938965 4.10972 5.40148 0.25 10.8331 0.25C16.2648 0.25 20.7273 4.10972 20.7273 8.93866C20.7273 13.7675 16.265 17.6272 10.8335 17.6273C10.8334 17.6273 10.8333 17.6273 10.8331 17.6273L2.92853 17.2917M4.59447 13.4565L4.59438 13.4564C3.35692 12.2155 2.64449 10.6352 2.64449 8.93866C2.64449 5.25766 6.12309 1.95552 10.8331 1.95552C15.5432 1.95552 19.0218 5.25766 19.0218 8.93866C19.0218 12.6208 15.5432 15.9218 10.8331 15.9218H10.8328C10.0045 15.9231 9.17966 15.8157 8.37935 15.6024C8.03336 15.5099 7.66542 15.5483 7.34593 15.7101C6.93562 15.9179 6.05755 16.3069 4.63953 16.6662C4.81594 15.9964 4.9405 15.3137 5.01201 14.6244H5.01201L5.0122 14.6224C5.03259 14.4093 5.00573 14.1943 4.93352 13.9928C4.86131 13.7913 4.74555 13.6082 4.59447 13.4565Z" fill="#999999" stroke="#999999" stroke-width="0.5"/>
</svg>
