<svg width="17" height="21" viewBox="0 0 17 21" fill="none" xmlns="http://www.w3.org/2000/svg">
<path d="M12.8223 2.91016H15.0498C15.2885 2.91016 15.5174 3.00498 15.6862 3.17376C15.855 3.34254 15.9498 3.57146 15.9498 3.81016V18.6602C15.9498 18.8989 15.855 19.1278 15.6862 19.2966C15.5174 19.4653 15.2885 19.5602 15.0498 19.5602H2.4498C2.21111 19.5602 1.98219 19.4653 1.81341 19.2966C1.64463 19.1278 1.5498 18.8989 1.5498 18.6602V3.81016C1.5498 3.57146 1.64463 3.34254 1.81341 3.17376C1.98219 3.00498 2.21111 2.91016 2.4498 2.91016H5.5998V4.26016H11.8998V2.91016H12.8223Z" stroke="#999999" stroke-width="2" stroke-linejoin="round"/>
<path d="M10.0996 8.31006L6.49961 11.9105H11.0014L7.39961 15.5105M5.59961 1.56006H11.8996V4.26006H5.59961V1.56006Z" stroke="#999999" stroke-width="2" stroke-linecap="round" stroke-linejoin="round"/>
</svg>
