<svg width="19" height="17" viewBox="0 0 19 17" fill="none" xmlns="http://www.w3.org/2000/svg">
<path d="M13.5 0.5C13.7549 0.500283 14 0.597879 14.1854 0.772848C14.3707 0.947817 14.4822 1.18695 14.4972 1.44139C14.5121 1.69584 14.4293 1.94638 14.2657 2.14183C14.1021 2.33729 13.8701 2.4629 13.617 2.493L13.5 2.5H3C2.87505 2.49977 2.75455 2.54633 2.66222 2.63051C2.56988 2.71469 2.51241 2.83039 2.50112 2.95482C2.48984 3.07926 2.52554 3.20341 2.60122 3.30283C2.6769 3.40225 2.78705 3.46974 2.91 3.492L3 3.5H16.5C17.0046 3.49984 17.4906 3.69041 17.8605 4.0335C18.2305 4.37659 18.4572 4.84685 18.495 5.35L18.5 5.5V14.5C18.5002 15.0046 18.3096 15.4906 17.9665 15.8605C17.6234 16.2305 17.1532 16.4572 16.65 16.495L16.5 16.5H2.5C1.99542 16.5002 1.50943 16.3096 1.13945 15.9665C0.769471 15.6234 0.542843 15.1532 0.505 14.65L0.5 14.5V3C0.499902 2.36528 0.741233 1.75429 1.17504 1.29095C1.60885 0.82762 2.20265 0.546638 2.836 0.505L3 0.5H13.5ZM2.5 5.45V14.5H16.5V5.5H3C2.886 5.5 2.773 5.492 2.663 5.478L2.5 5.45ZM13 8.5C13.3978 8.5 13.7794 8.65804 14.0607 8.93934C14.342 9.22064 14.5 9.60218 14.5 10C14.5 10.3978 14.342 10.7794 14.0607 11.0607C13.7794 11.342 13.3978 11.5 13 11.5C12.6022 11.5 12.2206 11.342 11.9393 11.0607C11.658 10.7794 11.5 10.3978 11.5 10C11.5 9.60218 11.658 9.22064 11.9393 8.93934C12.2206 8.65804 12.6022 8.5 13 8.5Z" fill="#999999"/>
</svg>
