<svg width="20" height="19" viewBox="0 0 20 19" fill="none" xmlns="http://www.w3.org/2000/svg">
<path d="M18.9879 9.41969C18.9891 9.23132 18.9512 9.04474 18.8764 8.87184C18.8016 8.69894 18.6917 8.54349 18.5536 8.4154L10.1664 0.679688L1.77929 8.4154C1.64116 8.54349 1.53122 8.69894 1.45645 8.87184C1.38168 9.04474 1.34373 9.23132 1.345 9.41969V16.9654C1.345 17.3253 1.48799 17.6705 1.7425 17.925C1.99701 18.1796 2.34221 18.3225 2.70214 18.3225H17.6307C17.9907 18.3225 18.3358 18.1796 18.5904 17.925C18.8449 17.6705 18.9879 17.3253 18.9879 16.9654V9.41969Z" stroke="#999999" stroke-width="1.35714" stroke-linecap="round" stroke-linejoin="round"/>
<path d="M10.1664 17.9797C10.1664 18.319 10.5057 18.319 10.5057 18.319H14.5757C14.915 18.319 14.915 17.9797 14.915 17.9797V13.9096C14.915 13.5703 14.5757 13.5703 14.5757 13.5703H10.5057C10.1664 13.5703 10.1664 13.9096 10.1664 13.9096M10.1664 17.9797V13.9096M10.1664 17.9797C10.1664 17.9797 10.1664 18.319 9.82708 18.319H5.75701C5.75701 18.319 5.41772 18.319 5.41772 17.9797V13.9096C5.41772 13.9096 5.41772 13.5703 5.75701 13.5703H9.82708C9.82708 13.5703 10.1664 13.5703 10.1664 13.9096M8.13065 8.82031H12.2007C12.2007 8.82031 12.54 8.82031 12.54 9.1596V13.2297C12.54 13.2297 12.54 13.569 12.2007 13.569H8.13065C8.13065 13.569 7.79137 13.569 7.79137 13.2297V9.1596C7.79137 9.1596 7.79137 8.82031 8.13065 8.82031Z" stroke="#999999" stroke-width="1.35714" stroke-linecap="round" stroke-linejoin="round"/>
</svg>
