<svg width="19" height="17" viewBox="0 0 19 17" fill="none" xmlns="http://www.w3.org/2000/svg">
<path d="M13.5 0.560059C13.7549 0.560341 14 0.657937 14.1854 0.832907C14.3707 1.00788 14.4822 1.24701 14.4972 1.50145C14.5121 1.7559 14.4293 2.00644 14.2657 2.20189C14.1021 2.39734 13.8701 2.52295 13.617 2.55306L13.5 2.56006H3C2.87505 2.55983 2.75455 2.60639 2.66222 2.69057C2.56988 2.77475 2.51241 2.89045 2.50112 3.01488C2.48984 3.13932 2.52554 3.26347 2.60122 3.36289C2.6769 3.46231 2.78705 3.5298 2.91 3.55206L3 3.56006H16.5C17.0046 3.5599 17.4906 3.75046 17.8605 4.09356C18.2305 4.43665 18.4572 4.9069 18.495 5.41006L18.5 5.56006V14.5601C18.5002 15.0646 18.3096 15.5506 17.9665 15.9206C17.6234 16.2906 17.1532 16.5172 16.65 16.5551L16.5 16.5601H2.5C1.99542 16.5602 1.50943 16.3697 1.13945 16.0266C0.769471 15.6835 0.542843 15.2132 0.505 14.7101L0.5 14.5601V3.06006C0.499902 2.42534 0.741233 1.81435 1.17504 1.35101C1.60885 0.887679 2.20265 0.606696 2.836 0.565059L3 0.560059H13.5ZM2.5 5.51006V14.5601H16.5V5.56006H3C2.886 5.56006 2.773 5.55206 2.663 5.53806L2.5 5.51006ZM13 8.56006C13.3978 8.56006 13.7794 8.71809 14.0607 8.9994C14.342 9.2807 14.5 9.66223 14.5 10.0601C14.5 10.4579 14.342 10.8394 14.0607 11.1207C13.7794 11.402 13.3978 11.5601 13 11.5601C12.6022 11.5601 12.2206 11.402 11.9393 11.1207C11.658 10.8394 11.5 10.4579 11.5 10.0601C11.5 9.66223 11.658 9.2807 11.9393 8.9994C12.2206 8.71809 12.6022 8.56006 13 8.56006Z" fill="#999999"/>
</svg>
